<mxfile host="app.diagrams.net" modified="2022-04-18T08:39:08.138Z" agent="5.0 (Windows NT 10.0; Win64; x64) AppleWebKit/537.36 (KHTML, like Gecko) Chrome/100.0.4896.127 Safari/537.36 Edg/100.0.1185.44" etag="yZCNRxN3B9vA3sndN6rY" version="17.4.5" type="github">
  <diagram name="Page-1" id="e7e014a7-5840-1c2e-5031-d8a46d1fe8dd">
    <mxGraphModel dx="1298" dy="684" grid="1" gridSize="10" guides="1" tooltips="1" connect="1" arrows="1" fold="1" page="1" pageScale="1" pageWidth="1169" pageHeight="826" background="none" math="0" shadow="0">
      <root>
        <mxCell id="0" />
        <mxCell id="1" parent="0" />
        <mxCell id="2" value="数据服务 " style="swimlane;whiteSpace=wrap;startSize=23;" parent="1" vertex="1">
          <mxGeometry x="20" y="80" width="280" height="650" as="geometry" />
        </mxCell>
        <mxCell id="lPYdNGUAKUubtrO1FUui-58" value="查询数据" style="rounded=0;whiteSpace=wrap;html=1;fontSize=12;fillColor=#d5e8d4;strokeColor=#82b366;" vertex="1" parent="2">
          <mxGeometry x="85" y="340" width="110" height="40" as="geometry" />
        </mxCell>
        <mxCell id="4" value="交易服务" style="swimlane;whiteSpace=wrap" parent="1" vertex="1">
          <mxGeometry x="580" y="80" width="450" height="650" as="geometry" />
        </mxCell>
        <mxCell id="lPYdNGUAKUubtrO1FUui-64" value="" style="edgeStyle=orthogonalEdgeStyle;rounded=0;orthogonalLoop=1;jettySize=auto;html=1;fontSize=12;fontColor=#FFFFFF;" edge="1" parent="4" source="lPYdNGUAKUubtrO1FUui-61" target="lPYdNGUAKUubtrO1FUui-63">
          <mxGeometry relative="1" as="geometry" />
        </mxCell>
        <mxCell id="lPYdNGUAKUubtrO1FUui-61" value="装载案例数据" style="whiteSpace=wrap;html=1;fillColor=#d5e8d4;strokeColor=#82b366;fontColor=rgb(0, 0, 0);rounded=0;" vertex="1" parent="4">
          <mxGeometry x="105" y="340" width="110" height="40" as="geometry" />
        </mxCell>
        <mxCell id="lPYdNGUAKUubtrO1FUui-63" value="案例数据入库" style="whiteSpace=wrap;html=1;fillColor=#d5e8d4;strokeColor=#82b366;fontColor=rgb(0, 0, 0);rounded=0;" vertex="1" parent="4">
          <mxGeometry x="105" y="460" width="110" height="40" as="geometry" />
        </mxCell>
        <mxCell id="lPYdNGUAKUubtrO1FUui-71" value="" style="edgeStyle=orthogonalEdgeStyle;rounded=0;orthogonalLoop=1;jettySize=auto;html=1;fontSize=12;fontColor=#FFFFFF;" edge="1" parent="4" source="lPYdNGUAKUubtrO1FUui-68" target="lPYdNGUAKUubtrO1FUui-70">
          <mxGeometry relative="1" as="geometry" />
        </mxCell>
        <mxCell id="lPYdNGUAKUubtrO1FUui-68" value="执行出清" style="whiteSpace=wrap;html=1;fillColor=#dae8fc;strokeColor=#6c8ebf;fontColor=rgb(0, 0, 0);rounded=0;" vertex="1" parent="4">
          <mxGeometry x="290" y="90" width="120" height="40" as="geometry" />
        </mxCell>
        <mxCell id="lPYdNGUAKUubtrO1FUui-73" value="" style="edgeStyle=orthogonalEdgeStyle;rounded=0;orthogonalLoop=1;jettySize=auto;html=1;fontSize=12;fontColor=#FFFFFF;" edge="1" parent="4" source="lPYdNGUAKUubtrO1FUui-70" target="lPYdNGUAKUubtrO1FUui-72">
          <mxGeometry relative="1" as="geometry" />
        </mxCell>
        <mxCell id="lPYdNGUAKUubtrO1FUui-70" value="生成算法输入文件" style="whiteSpace=wrap;html=1;fillColor=#dae8fc;strokeColor=#6c8ebf;fontColor=rgb(0, 0, 0);rounded=0;" vertex="1" parent="4">
          <mxGeometry x="290" y="180" width="120" height="40" as="geometry" />
        </mxCell>
        <mxCell id="lPYdNGUAKUubtrO1FUui-75" value="" style="edgeStyle=orthogonalEdgeStyle;rounded=0;orthogonalLoop=1;jettySize=auto;html=1;fontSize=12;fontColor=#FFFFFF;" edge="1" parent="4" source="lPYdNGUAKUubtrO1FUui-72" target="lPYdNGUAKUubtrO1FUui-74">
          <mxGeometry relative="1" as="geometry" />
        </mxCell>
        <mxCell id="lPYdNGUAKUubtrO1FUui-72" value="打包上传输入文件" style="whiteSpace=wrap;html=1;fillColor=#dae8fc;strokeColor=#6c8ebf;fontColor=rgb(0, 0, 0);rounded=0;" vertex="1" parent="4">
          <mxGeometry x="290" y="270" width="120" height="40" as="geometry" />
        </mxCell>
        <mxCell id="lPYdNGUAKUubtrO1FUui-74" value="调用出清服务" style="whiteSpace=wrap;html=1;fillColor=#dae8fc;strokeColor=#6c8ebf;fontColor=rgb(0, 0, 0);rounded=0;" vertex="1" parent="4">
          <mxGeometry x="290" y="350" width="120" height="40" as="geometry" />
        </mxCell>
        <mxCell id="lPYdNGUAKUubtrO1FUui-80" value="" style="edgeStyle=orthogonalEdgeStyle;rounded=0;orthogonalLoop=1;jettySize=auto;html=1;fontSize=12;fontColor=#FFFFFF;" edge="1" parent="4" source="lPYdNGUAKUubtrO1FUui-76" target="lPYdNGUAKUubtrO1FUui-79">
          <mxGeometry relative="1" as="geometry" />
        </mxCell>
        <mxCell id="lPYdNGUAKUubtrO1FUui-76" value="下载解压输出文件" style="rounded=0;whiteSpace=wrap;html=1;fontSize=12;fillColor=#dae8fc;strokeColor=#6c8ebf;" vertex="1" parent="4">
          <mxGeometry x="290" y="440" width="120" height="40" as="geometry" />
        </mxCell>
        <mxCell id="lPYdNGUAKUubtrO1FUui-82" value="" style="edgeStyle=orthogonalEdgeStyle;rounded=0;orthogonalLoop=1;jettySize=auto;html=1;fontSize=12;fontColor=#FFFFFF;" edge="1" parent="4" source="lPYdNGUAKUubtrO1FUui-79" target="lPYdNGUAKUubtrO1FUui-81">
          <mxGeometry relative="1" as="geometry" />
        </mxCell>
        <mxCell id="lPYdNGUAKUubtrO1FUui-79" value="解析输出文件" style="rounded=0;whiteSpace=wrap;html=1;fontSize=12;fillColor=#dae8fc;strokeColor=#6c8ebf;fontColor=rgb(0, 0, 0);" vertex="1" parent="4">
          <mxGeometry x="290" y="510" width="120" height="40" as="geometry" />
        </mxCell>
        <mxCell id="lPYdNGUAKUubtrO1FUui-81" value="案例结果入库" style="rounded=0;whiteSpace=wrap;html=1;fontSize=12;fillColor=#dae8fc;strokeColor=#6c8ebf;fontColor=rgb(0, 0, 0);" vertex="1" parent="4">
          <mxGeometry x="290" y="590" width="120" height="40" as="geometry" />
        </mxCell>
        <mxCell id="lPYdNGUAKUubtrO1FUui-86" value="" style="ellipse;html=1;shape=endState;fillColor=#000000;strokeColor=#ff0000;fontSize=12;fontColor=#FFFFFF;" vertex="1" parent="4">
          <mxGeometry x="145" y="40" width="30" height="30" as="geometry" />
        </mxCell>
        <mxCell id="lPYdNGUAKUubtrO1FUui-92" value="" style="edgeStyle=orthogonalEdgeStyle;rounded=0;orthogonalLoop=1;jettySize=auto;html=1;fontSize=12;fontColor=#000000;" edge="1" parent="4" source="lPYdNGUAKUubtrO1FUui-88" target="lPYdNGUAKUubtrO1FUui-91">
          <mxGeometry relative="1" as="geometry" />
        </mxCell>
        <mxCell id="lPYdNGUAKUubtrO1FUui-88" value="交易出清定时器" style="whiteSpace=wrap;html=1;fillColor=#FFFFFF;strokeColor=#ff0000;fontColor=#000000;" vertex="1" parent="4">
          <mxGeometry x="97.5" y="130" width="125" height="35" as="geometry" />
        </mxCell>
        <mxCell id="lPYdNGUAKUubtrO1FUui-89" value="" style="edgeStyle=orthogonalEdgeStyle;rounded=0;orthogonalLoop=1;jettySize=auto;html=1;fontSize=12;fontColor=#FFFFFF;" edge="1" parent="4" source="lPYdNGUAKUubtrO1FUui-86" target="lPYdNGUAKUubtrO1FUui-88">
          <mxGeometry relative="1" as="geometry" />
        </mxCell>
        <mxCell id="lPYdNGUAKUubtrO1FUui-96" style="edgeStyle=orthogonalEdgeStyle;rounded=0;orthogonalLoop=1;jettySize=auto;html=1;exitX=0.5;exitY=1;exitDx=0;exitDy=0;fontSize=12;fontColor=#000000;" edge="1" parent="4" source="lPYdNGUAKUubtrO1FUui-91" target="lPYdNGUAKUubtrO1FUui-95">
          <mxGeometry relative="1" as="geometry" />
        </mxCell>
        <mxCell id="lPYdNGUAKUubtrO1FUui-91" value="交易出清任务" style="whiteSpace=wrap;html=1;fillColor=#FFFFFF;strokeColor=#ff0000;fontColor=#000000;" vertex="1" parent="4">
          <mxGeometry x="97.5" y="200" width="125" height="35" as="geometry" />
        </mxCell>
        <mxCell id="lPYdNGUAKUubtrO1FUui-97" style="edgeStyle=orthogonalEdgeStyle;rounded=0;orthogonalLoop=1;jettySize=auto;html=1;exitX=0.5;exitY=1;exitDx=0;exitDy=0;entryX=0.5;entryY=0;entryDx=0;entryDy=0;fontSize=12;fontColor=#000000;" edge="1" parent="4" source="lPYdNGUAKUubtrO1FUui-95" target="lPYdNGUAKUubtrO1FUui-61">
          <mxGeometry relative="1" as="geometry" />
        </mxCell>
        <mxCell id="lPYdNGUAKUubtrO1FUui-95" value="创建案例" style="whiteSpace=wrap;html=1;fillColor=#FFFFFF;strokeColor=#ff0000;fontColor=#000000;" vertex="1" parent="4">
          <mxGeometry x="97.5" y="260" width="125" height="35" as="geometry" />
        </mxCell>
        <mxCell id="lPYdNGUAKUubtrO1FUui-47" value="算法调用服务" style="swimlane;whiteSpace=wrap" vertex="1" parent="1">
          <mxGeometry x="1030" y="80" width="280" height="650" as="geometry" />
        </mxCell>
        <mxCell id="lPYdNGUAKUubtrO1FUui-54" value="&lt;font style=&quot;font-size: 12px&quot;&gt;&lt;span style=&quot;white-space: pre&quot;&gt;	&lt;/span&gt;图例&amp;nbsp;&lt;span style=&quot;white-space: pre&quot;&gt;	&lt;/span&gt;&lt;span style=&quot;white-space: pre&quot;&gt;	&lt;/span&gt;&lt;span style=&quot;white-space: pre&quot;&gt;	&lt;/span&gt;&lt;span style=&quot;white-space: pre&quot;&gt;	&lt;/span&gt;装载案例数据&lt;span style=&quot;white-space: pre&quot;&gt;	&lt;span style=&quot;white-space: pre&quot;&gt;	&lt;/span&gt;&lt;span style=&quot;white-space: pre&quot;&gt;	&lt;/span&gt;&lt;span style=&quot;white-space: pre&quot;&gt;	&lt;/span&gt;&lt;span style=&quot;white-space: pre&quot;&gt;	&lt;/span&gt;出清&lt;/span&gt;&lt;span style=&quot;white-space: pre&quot;&gt;	&lt;/span&gt;&lt;span style=&quot;white-space: pre&quot;&gt;	&lt;/span&gt;&lt;span style=&quot;white-space: pre&quot;&gt;	&lt;/span&gt;&lt;/font&gt;" style="rounded=0;whiteSpace=wrap;html=1;align=left;" vertex="1" parent="1">
          <mxGeometry x="620" y="10" width="470" height="60" as="geometry" />
        </mxCell>
        <mxCell id="lPYdNGUAKUubtrO1FUui-55" value="" style="rounded=0;whiteSpace=wrap;html=1;fillColor=#d5e8d4;strokeColor=#82b366;" vertex="1" parent="1">
          <mxGeometry x="700" y="25" width="70" height="30" as="geometry" />
        </mxCell>
        <mxCell id="lPYdNGUAKUubtrO1FUui-56" value="" style="rounded=0;whiteSpace=wrap;html=1;fillColor=#dae8fc;strokeColor=#6c8ebf;" vertex="1" parent="1">
          <mxGeometry x="890" y="25" width="70" height="30" as="geometry" />
        </mxCell>
        <mxCell id="3" value="案例服务" style="swimlane;whiteSpace=wrap" parent="1" vertex="1">
          <mxGeometry x="300" y="80" width="280" height="650" as="geometry" />
        </mxCell>
        <mxCell id="lPYdNGUAKUubtrO1FUui-65" value="案例数据保存" style="whiteSpace=wrap;html=1;fillColor=#d5e8d4;strokeColor=#82b366;fontColor=rgb(0, 0, 0);rounded=0;" vertex="1" parent="3">
          <mxGeometry x="100" y="457.5" width="100" height="45" as="geometry" />
        </mxCell>
        <mxCell id="lPYdNGUAKUubtrO1FUui-67" value="查询案例数据" style="rounded=0;whiteSpace=wrap;html=1;fontSize=12;fillColor=#dae8fc;strokeColor=#6c8ebf;" vertex="1" parent="3">
          <mxGeometry x="85" y="90" width="110" height="40" as="geometry" />
        </mxCell>
        <mxCell id="lPYdNGUAKUubtrO1FUui-83" value="案例结果保存" style="rounded=0;whiteSpace=wrap;html=1;fontSize=12;fillColor=#dae8fc;strokeColor=#6c8ebf;fontColor=rgb(0, 0, 0);" vertex="1" parent="3">
          <mxGeometry x="80" y="590" width="120" height="40" as="geometry" />
        </mxCell>
        <mxCell id="lPYdNGUAKUubtrO1FUui-66" value="" style="edgeStyle=orthogonalEdgeStyle;rounded=0;orthogonalLoop=1;jettySize=auto;html=1;fontSize=12;fontColor=#FFFFFF;" edge="1" parent="1" source="lPYdNGUAKUubtrO1FUui-63" target="lPYdNGUAKUubtrO1FUui-65">
          <mxGeometry relative="1" as="geometry" />
        </mxCell>
        <mxCell id="lPYdNGUAKUubtrO1FUui-69" value="" style="edgeStyle=orthogonalEdgeStyle;rounded=0;orthogonalLoop=1;jettySize=auto;html=1;fontSize=12;fontColor=#FFFFFF;" edge="1" parent="1" source="lPYdNGUAKUubtrO1FUui-67" target="lPYdNGUAKUubtrO1FUui-68">
          <mxGeometry relative="1" as="geometry" />
        </mxCell>
        <mxCell id="lPYdNGUAKUubtrO1FUui-84" value="" style="edgeStyle=orthogonalEdgeStyle;rounded=0;orthogonalLoop=1;jettySize=auto;html=1;fontSize=12;fontColor=#FFFFFF;" edge="1" parent="1" source="lPYdNGUAKUubtrO1FUui-81" target="lPYdNGUAKUubtrO1FUui-83">
          <mxGeometry relative="1" as="geometry" />
        </mxCell>
        <mxCell id="lPYdNGUAKUubtrO1FUui-85" style="edgeStyle=orthogonalEdgeStyle;rounded=0;orthogonalLoop=1;jettySize=auto;html=1;exitX=1;exitY=0.5;exitDx=0;exitDy=0;entryX=0;entryY=0.5;entryDx=0;entryDy=0;fontSize=12;fontColor=#FFFFFF;" edge="1" parent="1" source="lPYdNGUAKUubtrO1FUui-58" target="lPYdNGUAKUubtrO1FUui-61">
          <mxGeometry relative="1" as="geometry" />
        </mxCell>
      </root>
    </mxGraphModel>
  </diagram>
</mxfile>
